<svg xmlns="http://www.w3.org/2000/svg" xmlns:xlink="http://www.w3.org/1999/xlink" width="300" zoomAndPan="magnify" viewBox="0 0 224.87999 74.999997" height="100" preserveAspectRatio="xMidYMid meet" version="1.2"><defs><clipPath id="95d7aa78fd"><path d="M 79 24 L 98 24 L 98 74.980469 L 79 74.980469 Z M 79 24 "/></clipPath><clipPath id="de7c2cccc3"><path d="M 155 36 L 183 36 L 183 74.980469 L 155 74.980469 Z M 155 36 "/></clipPath></defs><g id="491544b966"><g style="fill:#fff4e3;fill-opacity:1;"><g transform="translate(0.00441209, 61.576688)"><path style="stroke:none" d="M 12.40625 0.9375 C 10.488281 0.9375 8.535156 0.703125 6.546875 0.234375 C 4.554688 -0.234375 2.894531 -0.851562 1.5625 -1.625 L 1.828125 -8.734375 L 2.359375 -8.734375 L 3.984375 -5.34375 C 4.460938 -4.363281 4.984375 -3.5 5.546875 -2.75 C 6.109375 -2 6.875 -1.414062 7.84375 -1 C 8.539062 -0.644531 9.210938 -0.40625 9.859375 -0.28125 C 10.503906 -0.164062 11.226562 -0.109375 12.03125 -0.109375 C 14.164062 -0.109375 15.847656 -0.679688 17.078125 -1.828125 C 18.316406 -2.984375 18.9375 -4.46875 18.9375 -6.28125 C 18.9375 -7.988281 18.519531 -9.320312 17.6875 -10.28125 C 16.851562 -11.238281 15.507812 -12.171875 13.65625 -13.078125 L 11.515625 -14.03125 C 8.515625 -15.351562 6.164062 -16.875 4.46875 -18.59375 C 2.78125 -20.320312 1.9375 -22.617188 1.9375 -25.484375 C 1.9375 -27.546875 2.46875 -29.328125 3.53125 -30.828125 C 4.59375 -32.328125 6.070312 -33.476562 7.96875 -34.28125 C 9.875 -35.082031 12.101562 -35.484375 14.65625 -35.484375 C 16.5 -35.484375 18.25 -35.238281 19.90625 -34.75 C 21.5625 -34.257812 23.003906 -33.59375 24.234375 -32.75 L 23.90625 -26.484375 L 23.390625 -26.484375 L 21.25 -30.40625 C 20.65625 -31.625 20.0625 -32.484375 19.46875 -32.984375 C 18.875 -33.492188 18.191406 -33.851562 17.421875 -34.0625 C 16.972656 -34.207031 16.554688 -34.304688 16.171875 -34.359375 C 15.785156 -34.410156 15.296875 -34.4375 14.703125 -34.4375 C 12.921875 -34.4375 11.421875 -33.921875 10.203125 -32.890625 C 8.984375 -31.859375 8.375 -30.472656 8.375 -28.734375 C 8.375 -26.953125 8.84375 -25.53125 9.78125 -24.46875 C 10.726562 -23.40625 12.109375 -22.453125 13.921875 -21.609375 L 16.328125 -20.5625 C 19.671875 -19.09375 22.078125 -17.53125 23.546875 -15.875 C 25.015625 -14.21875 25.75 -12.082031 25.75 -9.46875 C 25.75 -6.394531 24.585938 -3.890625 22.265625 -1.953125 C 19.941406 -0.0234375 16.65625 0.9375 12.40625 0.9375 Z M 12.40625 0.9375 "/></g></g><g style="fill:#fff4e3;fill-opacity:1;"><g transform="translate(27.269283, 61.576688)"><path style="stroke:none" d="M 14.28125 0.78125 C 11.632812 0.78125 9.332031 0.234375 7.375 -0.859375 C 5.425781 -1.960938 3.914062 -3.523438 2.84375 -5.546875 C 1.78125 -7.566406 1.25 -9.9375 1.25 -12.65625 C 1.25 -15.382812 1.816406 -17.738281 2.953125 -19.71875 C 4.085938 -21.707031 5.640625 -23.242188 7.609375 -24.328125 C 9.578125 -25.410156 11.800781 -25.953125 14.28125 -25.953125 C 16.757812 -25.953125 18.972656 -25.421875 20.921875 -24.359375 C 22.878906 -23.296875 24.425781 -21.769531 25.5625 -19.78125 C 26.695312 -17.789062 27.265625 -15.414062 27.265625 -12.65625 C 27.265625 -9.90625 26.734375 -7.523438 25.671875 -5.515625 C 24.609375 -3.515625 23.109375 -1.960938 21.171875 -0.859375 C 19.234375 0.234375 16.9375 0.78125 14.28125 0.78125 Z M 14.28125 -0.265625 C 15.5 -0.265625 16.472656 -0.613281 17.203125 -1.3125 C 17.941406 -2.007812 18.476562 -3.242188 18.8125 -5.015625 C 19.144531 -6.796875 19.3125 -9.3125 19.3125 -12.5625 C 19.3125 -15.84375 19.144531 -18.367188 18.8125 -20.140625 C 18.476562 -21.921875 17.941406 -23.160156 17.203125 -23.859375 C 16.472656 -24.554688 15.5 -24.90625 14.28125 -24.90625 C 13.0625 -24.90625 12.078125 -24.554688 11.328125 -23.859375 C 10.578125 -23.160156 10.035156 -21.921875 9.703125 -20.140625 C 9.367188 -18.367188 9.203125 -15.84375 9.203125 -12.5625 C 9.203125 -9.3125 9.367188 -6.796875 9.703125 -5.015625 C 10.035156 -3.242188 10.578125 -2.007812 11.328125 -1.3125 C 12.078125 -0.613281 13.0625 -0.265625 14.28125 -0.265625 Z M 14.28125 -0.265625 "/></g></g><g style="fill:#fff4e3;fill-opacity:1;"><g transform="translate(55.580789, 61.576688)"><path style="stroke:none" d="M 10.515625 0.78125 C 9.160156 0.78125 7.914062 0.519531 6.78125 0 C 5.644531 -0.519531 4.753906 -1.363281 4.109375 -2.53125 C 3.460938 -3.707031 3.15625 -5.253906 3.1875 -7.171875 L 3.34375 -20.625 C 3.34375 -21.425781 3.203125 -22 2.921875 -22.34375 C 2.648438 -22.695312 2.21875 -22.941406 1.625 -23.078125 L 1 -23.28125 L 1 -23.8125 L 10.359375 -25.640625 L 10.890625 -25.125 L 10.625 -17.6875 L 10.625 -5.078125 C 10.625 -3.960938 10.945312 -3.140625 11.59375 -2.609375 C 12.238281 -2.085938 13.050781 -1.828125 14.03125 -1.828125 C 15 -1.828125 15.867188 -1.96875 16.640625 -2.25 C 17.410156 -2.53125 18.175781 -2.945312 18.9375 -3.5 L 19.15625 -20.5625 C 19.15625 -21.363281 19.03125 -21.929688 18.78125 -22.265625 C 18.539062 -22.597656 18.085938 -22.832031 17.421875 -22.96875 L 16.90625 -23.125 L 16.90625 -23.65625 L 26.0625 -25.640625 L 26.578125 -25.125 L 26.421875 -17.6875 L 26.421875 -3.5 C 26.421875 -2.738281 26.523438 -2.144531 26.734375 -1.71875 C 26.941406 -1.300781 27.394531 -0.957031 28.09375 -0.6875 L 28.625 -0.515625 L 28.625 0 L 19.46875 0.515625 L 19 -2.5625 C 17.84375 -1.625 16.59375 -0.832031 15.25 -0.1875 C 13.90625 0.457031 12.328125 0.78125 10.515625 0.78125 Z M 10.515625 0.78125 "/></g></g><g clip-rule="nonzero" clip-path="url(#95d7aa78fd)"><g style="fill:#fff4e3;fill-opacity:1;"><g transform="translate(85.148255, 61.576688)"><path style="stroke:none" d="M 7.75 -28.671875 C 6.5625 -28.671875 5.566406 -29.046875 4.765625 -29.796875 C 3.960938 -30.546875 3.5625 -31.5 3.5625 -32.65625 C 3.5625 -33.84375 3.960938 -34.800781 4.765625 -35.53125 C 5.566406 -36.257812 6.5625 -36.625 7.75 -36.625 C 8.9375 -36.625 9.9375 -36.257812 10.75 -35.53125 C 11.570312 -34.800781 11.984375 -33.84375 11.984375 -32.65625 C 11.984375 -31.5 11.570312 -30.546875 10.75 -29.796875 C 9.9375 -29.046875 8.9375 -28.671875 7.75 -28.671875 Z M 0 12.5625 C -1.988281 12.5625 -3.414062 12.21875 -4.28125 11.53125 C -5.15625 10.851562 -5.59375 9.972656 -5.59375 8.890625 C -5.59375 7.921875 -5.242188 7.140625 -4.546875 6.546875 C -3.847656 5.953125 -3.03125 5.65625 -2.09375 5.65625 C -1.15625 5.65625 -0.300781 5.890625 0.46875 6.359375 C 1.238281 6.828125 1.832031 7.566406 2.25 8.578125 L 2.765625 9.734375 C 3.015625 10.117188 3.304688 10.25 3.640625 10.125 C 3.972656 10 4.140625 9.453125 4.140625 8.484375 L 4.140625 -19.671875 C 4.140625 -20.472656 3.953125 -21.054688 3.578125 -21.421875 C 3.210938 -21.796875 2.679688 -22.050781 1.984375 -22.1875 L 1.203125 -22.296875 L 1.203125 -22.8125 L 10.984375 -25.90625 L 11.609375 -25.375 L 11.453125 -17.953125 L 11.453125 -3.40625 C 11.453125 -1.132812 11.359375 0.765625 11.171875 2.296875 C 10.984375 3.835938 10.648438 5.140625 10.171875 6.203125 C 9.703125 7.265625 9.03125 8.25 8.15625 9.15625 C 6.9375 10.375 5.613281 11.242188 4.1875 11.765625 C 2.757812 12.296875 1.363281 12.5625 0 12.5625 Z M 0 12.5625 "/></g></g></g><g style="fill:#fff4e3;fill-opacity:1;"><g transform="translate(99.539495, 61.576688)"><path style="stroke:none" d="M 8.6875 0.78125 C 6.664062 0.78125 4.960938 0.207031 3.578125 -0.9375 C 2.203125 -2.09375 1.515625 -3.75 1.515625 -5.90625 C 1.515625 -7.550781 2.351562 -9.0625 4.03125 -10.4375 C 5.707031 -11.8125 8.34375 -12.847656 11.9375 -13.546875 C 12.488281 -13.648438 13.113281 -13.765625 13.8125 -13.890625 C 14.507812 -14.015625 15.242188 -14.144531 16.015625 -14.28125 L 16.015625 -18.421875 C 16.015625 -20.796875 15.722656 -22.460938 15.140625 -23.421875 C 14.566406 -24.378906 13.671875 -24.859375 12.453125 -24.859375 C 11.617188 -24.859375 10.957031 -24.585938 10.46875 -24.046875 C 9.976562 -23.503906 9.664062 -22.570312 9.53125 -21.25 L 9.421875 -20.671875 C 9.347656 -19.171875 8.976562 -18.070312 8.3125 -17.375 C 7.65625 -16.675781 6.835938 -16.328125 5.859375 -16.328125 C 4.953125 -16.328125 4.203125 -16.601562 3.609375 -17.15625 C 3.015625 -17.71875 2.71875 -18.46875 2.71875 -19.40625 C 2.71875 -20.84375 3.210938 -22.046875 4.203125 -23.015625 C 5.203125 -23.992188 6.519531 -24.726562 8.15625 -25.21875 C 9.800781 -25.707031 11.582031 -25.953125 13.5 -25.953125 C 16.601562 -25.953125 19 -25.191406 20.6875 -23.671875 C 22.382812 -22.160156 23.234375 -19.695312 23.234375 -16.28125 L 23.234375 -4.703125 C 23.234375 -3.140625 23.96875 -2.359375 25.4375 -2.359375 L 26.578125 -2.359375 L 27.046875 -1.9375 C 26.390625 -1.101562 25.664062 -0.457031 24.875 0 C 24.09375 0.457031 22.988281 0.6875 21.5625 0.6875 C 20.019531 0.6875 18.804688 0.328125 17.921875 -0.390625 C 17.035156 -1.109375 16.453125 -2.0625 16.171875 -3.25 C 15.117188 -2.125 14.039062 -1.171875 12.9375 -0.390625 C 11.84375 0.390625 10.425781 0.78125 8.6875 0.78125 Z M 11.875 -2.40625 C 12.570312 -2.40625 13.222656 -2.570312 13.828125 -2.90625 C 14.441406 -3.238281 15.171875 -3.753906 16.015625 -4.453125 L 16.015625 -13.234375 C 15.660156 -13.171875 15.304688 -13.101562 14.953125 -13.03125 C 14.609375 -12.957031 14.210938 -12.890625 13.765625 -12.828125 C 12.160156 -12.398438 10.878906 -11.6875 9.921875 -10.6875 C 8.960938 -9.695312 8.484375 -8.367188 8.484375 -6.703125 C 8.484375 -5.265625 8.8125 -4.1875 9.46875 -3.46875 C 10.132812 -2.757812 10.9375 -2.40625 11.875 -2.40625 Z M 11.875 -2.40625 "/></g></g><g style="fill:#fff4e3;fill-opacity:1;"><g transform="translate(126.542703, 61.576688)"><path style="stroke:none" d="M 1.046875 0 L 1.046875 -0.515625 L 1.78125 -0.734375 C 3 -1.078125 3.609375 -1.929688 3.609375 -3.296875 L 3.609375 -19.671875 C 3.609375 -20.441406 3.484375 -21.007812 3.234375 -21.375 C 2.992188 -21.738281 2.523438 -21.992188 1.828125 -22.140625 L 1.046875 -22.34375 L 1.046875 -22.875 L 10 -25.90625 L 10.515625 -25.375 L 10.9375 -22.234375 C 12.15625 -23.316406 13.53125 -24.207031 15.0625 -24.90625 C 16.601562 -25.601562 18.125 -25.953125 19.625 -25.953125 C 21.925781 -25.953125 23.695312 -25.320312 24.9375 -24.0625 C 26.175781 -22.8125 26.796875 -20.894531 26.796875 -18.3125 L 26.796875 -3.25 C 26.796875 -1.882812 27.457031 -1.03125 28.78125 -0.6875 L 29.25 -0.515625 L 29.25 0 L 16.90625 0 L 16.90625 -0.515625 L 17.578125 -0.734375 C 18.796875 -1.117188 19.40625 -1.972656 19.40625 -3.296875 L 19.40625 -19.984375 C 19.40625 -22.222656 18.289062 -23.34375 16.0625 -23.34375 C 14.53125 -23.34375 12.859375 -22.570312 11.046875 -21.03125 L 11.046875 -3.25 C 11.046875 -1.882812 11.65625 -1.03125 12.875 -0.6875 L 13.34375 -0.515625 L 13.34375 0 Z M 1.046875 0 "/></g></g><g clip-rule="nonzero" clip-path="url(#de7c2cccc3)"><g style="fill:#fff4e3;fill-opacity:1;"><g transform="translate(155.220508, 61.576688)"><path style="stroke:none" d="M 5.859375 12.5625 C 4.460938 12.5625 3.351562 12.210938 2.53125 11.515625 C 1.71875 10.816406 1.3125 9.925781 1.3125 8.84375 C 1.3125 7.863281 1.660156 7.078125 2.359375 6.484375 C 3.054688 5.890625 3.835938 5.59375 4.703125 5.59375 C 5.578125 5.59375 6.3125 5.773438 6.90625 6.140625 C 7.5 6.515625 8.023438 7.050781 8.484375 7.75 L 8.84375 8.15625 C 9.613281 9.207031 10.378906 9.191406 11.140625 8.109375 C 11.453125 7.585938 11.8125 6.898438 12.21875 6.046875 C 12.625 5.191406 13.085938 4.046875 13.609375 2.609375 L 3.453125 -21.65625 C 3.210938 -22.320312 2.953125 -22.851562 2.671875 -23.25 C 2.390625 -23.65625 1.9375 -24 1.3125 -24.28125 L 0.359375 -24.640625 L 0.359375 -25.171875 L 13.390625 -25.171875 L 13.390625 -24.703125 L 12.34375 -24.28125 C 11.582031 -24.03125 11.191406 -23.632812 11.171875 -23.09375 C 11.148438 -22.5625 11.28125 -21.894531 11.5625 -21.09375 L 17 -6.953125 L 22.1875 -21.25 C 22.46875 -22.050781 22.570312 -22.722656 22.5 -23.265625 C 22.425781 -23.804688 21.988281 -24.179688 21.1875 -24.390625 L 20.09375 -24.640625 L 20.09375 -25.171875 L 27.375 -25.171875 L 27.375 -24.640625 L 26.21875 -24.28125 C 25.414062 -24.03125 24.859375 -23.675781 24.546875 -23.21875 C 24.234375 -22.769531 23.9375 -22.144531 23.65625 -21.34375 L 15.234375 1.625 C 13.867188 5.28125 12.503906 8.015625 11.140625 9.828125 C 9.785156 11.648438 8.023438 12.5625 5.859375 12.5625 Z M 5.859375 12.5625 "/></g></g></g><g style="fill:#fff4e3;fill-opacity:1;"><g transform="translate(182.066716, 61.576688)"><path style="stroke:none" d="M 8.6875 0.78125 C 6.664062 0.78125 4.960938 0.207031 3.578125 -0.9375 C 2.203125 -2.09375 1.515625 -3.75 1.515625 -5.90625 C 1.515625 -7.550781 2.351562 -9.0625 4.03125 -10.4375 C 5.707031 -11.8125 8.34375 -12.847656 11.9375 -13.546875 C 12.488281 -13.648438 13.113281 -13.765625 13.8125 -13.890625 C 14.507812 -14.015625 15.242188 -14.144531 16.015625 -14.28125 L 16.015625 -18.421875 C 16.015625 -20.796875 15.722656 -22.460938 15.140625 -23.421875 C 14.566406 -24.378906 13.671875 -24.859375 12.453125 -24.859375 C 11.617188 -24.859375 10.957031 -24.585938 10.46875 -24.046875 C 9.976562 -23.503906 9.664062 -22.570312 9.53125 -21.25 L 9.421875 -20.671875 C 9.347656 -19.171875 8.976562 -18.070312 8.3125 -17.375 C 7.65625 -16.675781 6.835938 -16.328125 5.859375 -16.328125 C 4.953125 -16.328125 4.203125 -16.601562 3.609375 -17.15625 C 3.015625 -17.71875 2.71875 -18.46875 2.71875 -19.40625 C 2.71875 -20.84375 3.210938 -22.046875 4.203125 -23.015625 C 5.203125 -23.992188 6.519531 -24.726562 8.15625 -25.21875 C 9.800781 -25.707031 11.582031 -25.953125 13.5 -25.953125 C 16.601562 -25.953125 19 -25.191406 20.6875 -23.671875 C 22.382812 -22.160156 23.234375 -19.695312 23.234375 -16.28125 L 23.234375 -4.703125 C 23.234375 -3.140625 23.96875 -2.359375 25.4375 -2.359375 L 26.578125 -2.359375 L 27.046875 -1.9375 C 26.390625 -1.101562 25.664062 -0.457031 24.875 0 C 24.09375 0.457031 22.988281 0.6875 21.5625 0.6875 C 20.019531 0.6875 18.804688 0.328125 17.921875 -0.390625 C 17.035156 -1.109375 16.453125 -2.0625 16.171875 -3.25 C 15.117188 -2.125 14.039062 -1.171875 12.9375 -0.390625 C 11.84375 0.390625 10.425781 0.78125 8.6875 0.78125 Z M 11.875 -2.40625 C 12.570312 -2.40625 13.222656 -2.570312 13.828125 -2.90625 C 14.441406 -3.238281 15.171875 -3.753906 16.015625 -4.453125 L 16.015625 -13.234375 C 15.660156 -13.171875 15.304688 -13.101562 14.953125 -13.03125 C 14.609375 -12.957031 14.210938 -12.890625 13.765625 -12.828125 C 12.160156 -12.398438 10.878906 -11.6875 9.921875 -10.6875 C 8.960938 -9.695312 8.484375 -8.367188 8.484375 -6.703125 C 8.484375 -5.265625 8.8125 -4.1875 9.46875 -3.46875 C 10.132812 -2.757812 10.9375 -2.40625 11.875 -2.40625 Z M 11.875 -2.40625 "/></g></g><g style="fill:#fff4e3;fill-opacity:1;"><g transform="translate(209.174583, 61.576688)"><path style="stroke:none" d="M 7.84375 0.78125 C 6.59375 0.78125 5.53125 0.347656 4.65625 -0.515625 C 3.78125 -1.390625 3.34375 -2.4375 3.34375 -3.65625 C 3.34375 -4.882812 3.78125 -5.953125 4.65625 -6.859375 C 5.53125 -7.765625 6.59375 -8.21875 7.84375 -8.21875 C 9.101562 -8.21875 10.164062 -7.765625 11.03125 -6.859375 C 11.90625 -5.953125 12.34375 -4.882812 12.34375 -3.65625 C 12.34375 -2.4375 11.90625 -1.390625 11.03125 -0.515625 C 10.164062 0.347656 9.101562 0.78125 7.84375 0.78125 Z M 7.84375 0.78125 "/></g></g></g></svg>